{"title":"Bajrangi Bhaijaan (2015) NEW S-CamRip - XviD - [1CD] - IcTv 7th ","uid":12136663,"size":724431530,"categoryP":"video","categoryS":"movies","magnet":"?xt=urn:btih:94cf2fc22f4114569be3271ff1d95376fe7805a3&amp;dn=Bajrangi+Bhaijaan+%282015%29+NEW+S-CamRip+-+XviD+-+%5B1CD%5D+-+IcTv+7th+&amp;tr=udp%3A%2F%2Ftracker.openbittorrent.com%3A80&amp;tr=udp%3A%2F%2Fopen.demonii.com%3A1337&amp;tr=udp%3A%2F%2Ftracker.coppersurfer.tk%3A6969&amp;tr=udp%3A%2F%2Fexodus.desync.com%3A6969","seeders":1,"leechers":0,"uploader":"SS132203","files":2,"time":1437207420,"description":"Bajrangi Bhaijaan (2015) NEW S-CamRip - XviD - [1CD] - IcTv 7th Anniversary Exclusive -={SPARROW}=-\n &lt;a href=&quot;\nhttp://imgsparrow.co/image/47&quot; rel=&quot;nofollow&quot; target=&quot;_NEW&quot;&gt;\nhttp://imgsparrow.co/image/47&lt;/a&gt;\n &lt;a href=&quot;\nhttp://imgsparrow.co/image/ii&quot; rel=&quot;nofollow&quot; target=&quot;_NEW&quot;&gt;\nhttp://imgsparrow.co/image/ii&lt;/a&gt;\n &lt;a href=&quot;\nhttp://imgsparrow.co/image/9b&quot; rel=&quot;nofollow&quot; target=&quot;_NEW&quot;&gt;\nhttp://imgsparrow.co/image/9b&lt;/a&gt;\n\nInfo : - \n\nChal beta selfie le le re Aa le le, aye le, aye le Aa le le, le le re\n\nAll Credit Goes To Intellect Clever &amp; IcTv\n\nMovie Info\nBanner : Eros International\nYear : 2015\nCast : Salman Khan, Kareena Kapoor\nVideo: XviD\nAudio : MP3\nGenre : Action, Romance, Drama\nSubtitles : None\nResolution : 640 X 272\nRuntime : 2hr 37min xx\nSource : Team IcTv\n\nFormat                      : AVI\nFormat/Info                 : Audio Video Interleave\nFile size                   : 691 MiB\nDuration                    : 2h 37mn\nOverall bit rate            : 615 Kbps\n\nVideo\nID                          : 0\nFormat                      : MPEG-4 Visual\nFormat profile              : Advanced Simple@L5\nFormat settings, BVOP       : 2\nFormat settings, QPel       : No\nFormat settings, GMC        : No warppoints\nFormat settings, Matrix     : Default (H.263)\nCodec ID                    : XVID\nCodec ID/Hint               : XviD\nDuration                    : 2h 37mn\nBit rate                    : 481 Kbps\nWidth                       : 640 pixels\nHeight                      : 272 pixels\nDisplay aspect ratio        : 2.35:1\nFrame rate                  : 25.000 fps\nColor space                 : YUV\nChroma subsampling          : 4:2:0\nBit depth                   : 8 bits\nScan type                   : Progressive\nCompression mode            : Lossy\nBits/(Pixel*Frame)          : 0.110\nStream size                 : 540 MiB (78%)\nWriting library             : XviD 1.2.1 (UTC 2008-12-04)\n\nAudio\nID                          : 1\nFormat                      : MPEG Audio\nFormat version              : Version 1\nFormat profile              : Layer 3\nMode                        : Joint stereo\nMode extension              : MS Stereo\nCodec ID                    : 55\nCodec ID/Hint               : MP3\nDuration                    : 2h 37mn\nBit rate mode               : Constant\nBit rate                    : 128 Kbps\nChannel(s)                  : 2 channels\nSampling rate               : 48.0 KHz\nCompression mode            : Lossy\nStream size                 : 144 MiB (21%)\n\nScreens : - \n &lt;a href=&quot;\nhttp://imgsparrow.co/image/Vh&quot; rel=&quot;nofollow&quot; target=&quot;_NEW&quot;&gt;\nhttp://imgsparrow.co/image/Vh&lt;/a&gt; &lt;a href=&quot;\nhttp://imgsparrow.co/image/Vj&quot; rel=&quot;nofollow&quot; target=&quot;_NEW&quot;&gt;\nhttp://imgsparrow.co/image/Vj&lt;/a&gt; &lt;a href=&quot;\nhttp://imgsparrow.co/image/Vr&quot; rel=&quot;nofollow&quot; target=&quot;_NEW&quot;&gt;\nhttp://imgsparrow.co/image/Vr&lt;/a&gt; &lt;a href=&quot;\nhttp://imgsparrow.co/image/VD&quot; rel=&quot;nofollow&quot; target=&quot;_NEW&quot;&gt;\nhttp://imgsparrow.co/image/VD&lt;/a&gt; &lt;a href=&quot;\nhttp://imgsparrow.co/image/VG&quot; rel=&quot;nofollow&quot; target=&quot;_NEW&quot;&gt;\nhttp://imgsparrow.co/image/VG&lt;/a&gt; &lt;a href=&quot;\nhttp://imgsparrow.co/image/Ve&quot; rel=&quot;nofollow&quot; target=&quot;_NEW&quot;&gt;\nhttp://imgsparrow.co/image/Ve&lt;/a&gt; &lt;a href=&quot;\nhttp://imgsparrow.co/image/Vg&quot; rel=&quot;nofollow&quot; target=&quot;_NEW&quot;&gt;\nhttp://imgsparrow.co/image/Vg&lt;/a&gt; &lt;a href=&quot;\nhttp://imgsparrow.co/image/Vq&quot; rel=&quot;nofollow&quot; target=&quot;_NEW&quot;&gt;\nhttp://imgsparrow.co/image/Vq&lt;/a&gt; &lt;a href=&quot;\nhttp://imgsparrow.co/image/Vz&quot; rel=&quot;nofollow&quot; target=&quot;_NEW&quot;&gt;\nhttp://imgsparrow.co/image/Vz&lt;/a&gt; &lt;a href=&quot;\nhttp://imgsparrow.co/image/V7&quot; rel=&quot;nofollow&quot; target=&quot;_NEW&quot;&gt;\nhttp://imgsparrow.co/image/V7&lt;/a&gt;\n &lt;a href=&quot;\nhttp://imgsparrow.co/image/N2&quot; rel=&quot;nofollow&quot; target=&quot;_NEW&quot;&gt;\nhttp://imgsparrow.co/image/N2&lt;/a&gt;","torrent":{"xt":"urn:btih:94cf2fc22f4114569be3271ff1d95376fe7805a3","amp;dn":"Bajrangi+Bhaijaan+%282015%29+NEW+S-CamRip+-+XviD+-+%5B1CD%5D+-+IcTv+7th+","amp;tr":["udp%3A%2F%2Ftracker.openbittorrent.com%3A80","udp%3A%2F%2Fopen.demonii.com%3A1337","udp%3A%2F%2Ftracker.coppersurfer.tk%3A6969","udp%3A%2F%2Fexodus.desync.com%3A6969"],"infoHash":"94cf2fc22f4114569be3271ff1d95376fe7805a3","infoHashBuffer":{"type":"Buffer","data":[148,207,47,194,47,65,20,86,155,227,39,31,241,217,83,118,254,120,5,163]},"announce":[],"urlList":[]}}